<svg width="169" height="169" viewBox="0 0 169 169" fill="none" xmlns="http://www.w3.org/2000/svg">
<circle cx="84.5" cy="84.5" r="84.5" fill="#D9D9D9"/>
<path d="M65.7727 81.3182H54.4091C54.2576 80.1515 53.947 79.0985 53.4773 78.1591C53.0076 77.2197 52.3864 76.4167 51.6136 75.75C50.8409 75.0833 49.9242 74.5758 48.8636 74.2273C47.8182 73.8636 46.6591 73.6818 45.3864 73.6818C43.1288 73.6818 41.1818 74.2348 39.5455 75.3409C37.9242 76.447 36.6742 78.0455 35.7955 80.1364C34.9318 82.2273 34.5 84.7576 34.5 87.7273C34.5 90.8182 34.9394 93.4091 35.8182 95.5C36.7121 97.5758 37.9621 99.1439 39.5682 100.205C41.1894 101.25 43.1061 101.773 45.3182 101.773C46.5606 101.773 47.6894 101.614 48.7045 101.295C49.7348 100.977 50.6364 100.515 51.4091 99.9091C52.197 99.2879 52.8409 98.5379 53.3409 97.6591C53.8561 96.7652 54.2121 95.7576 54.4091 94.6364L65.7727 94.7045C65.5758 96.7652 64.9773 98.7955 63.9773 100.795C62.9924 102.795 61.6364 104.621 59.9091 106.273C58.1818 107.909 56.0758 109.212 53.5909 110.182C51.1212 111.152 48.2879 111.636 45.0909 111.636C40.8788 111.636 37.1061 110.712 33.7727 108.864C30.4545 107 27.8333 104.288 25.9091 100.727C23.9848 97.1667 23.0227 92.8333 23.0227 87.7273C23.0227 82.6061 24 78.2652 25.9545 74.7045C27.9091 71.1439 30.553 68.4394 33.8864 66.5909C37.2197 64.7424 40.9545 63.8182 45.0909 63.8182C47.9091 63.8182 50.5152 64.2121 52.9091 65C55.303 65.7727 57.4091 66.9091 59.2273 68.4091C61.0455 69.8939 62.5227 71.7197 63.6591 73.8864C64.7955 76.053 65.5 78.5303 65.7727 81.3182ZM72.2102 111V64.4545H91.4375C94.9223 64.4545 97.9299 65.1364 100.46 66.5C103.006 67.8485 104.968 69.7348 106.347 72.1591C107.725 74.5682 108.415 77.3712 108.415 80.5682C108.415 83.7803 107.71 86.5909 106.301 89C104.907 91.3939 102.915 93.25 100.324 94.5682C97.733 95.8864 94.6572 96.5455 91.0966 96.5455H79.233V87.6818H89.0057C90.7027 87.6818 92.1193 87.3864 93.2557 86.7955C94.4072 86.2045 95.2784 85.3788 95.8693 84.3182C96.4602 83.2424 96.7557 81.9924 96.7557 80.5682C96.7557 79.1288 96.4602 77.8864 95.8693 76.8409C95.2784 75.7803 94.4072 74.9621 93.2557 74.3864C92.1042 73.8106 90.6875 73.5227 89.0057 73.5227H83.4602V111H72.2102ZM113.96 111V64.4545H145.733V73.5909H125.21V83.1364H143.71V92.2955H125.21V111H113.96Z" fill="black"/>
</svg>
